<svg xmlns="http://www.w3.org/2000/svg" width="32" height="32" viewBox="0 0 32 32">
  <!-- Background circle with gradient -->
  <defs>
    <radialGradient id="bgGradient" cx="50%" cy="30%" r="70%">
      <stop offset="0%" style="stop-color:#e8f5e8;stop-opacity:1" />
      <stop offset="100%" style="stop-color:#c8e6c9;stop-opacity:1" />
    </radialGradient>
    <linearGradient id="leafGradient" x1="0%" y1="0%" x2="100%" y2="100%">
      <stop offset="0%" style="stop-color:#4caf50;stop-opacity:1" />
      <stop offset="100%" style="stop-color:#2e7d32;stop-opacity:1" />
    </linearGradient>
    <radialGradient id="pollenGradient" cx="50%" cy="50%" r="50%">
      <stop offset="0%" style="stop-color:#ffeb3b;stop-opacity:0.9" />
      <stop offset="100%" style="stop-color:#ffc107;stop-opacity:0.7" />
    </radialGradient>
  </defs>
  
  <!-- Background -->
  <circle cx="16" cy="16" r="15" fill="url(#bgGradient)" stroke="#81c784" stroke-width="1"/>
  
  <!-- Main leaf -->
  <path d="M16 8 C12 8, 10 12, 10 16 C10 20, 12 24, 16 24 C20 24, 22 20, 22 16 C22 12, 20 8, 16 8 Z" 
        fill="url(#leafGradient)" opacity="0.9"/>
  
  <!-- Leaf vein -->
  <path d="M16 8 L16 24" stroke="#1b5e20" stroke-width="1" opacity="0.6"/>
  
  <!-- Smaller side leaves -->
  <path d="M8 14 C6 14, 5 16, 6 18 C7 20, 10 18, 12 16 C10 15, 8 14, 8 14 Z" 
        fill="url(#leafGradient)" opacity="0.7"/>
  <path d="M24 14 C26 14, 27 16, 26 18 C25 20, 22 18, 20 16 C22 15, 24 14, 24 14 Z" 
        fill="url(#leafGradient)" opacity="0.7"/>
  
  <!-- Pollen particles -->
  <circle cx="14" cy="10" r="1.5" fill="url(#pollenGradient)"/>
  <circle cx="18" cy="11" r="1" fill="url(#pollenGradient)"/>
  <circle cx="12" cy="13" r="0.8" fill="url(#pollenGradient)"/>
  <circle cx="20" cy="14" r="1.2" fill="url(#pollenGradient)"/>
  <circle cx="15" cy="6" r="0.6" fill="url(#pollenGradient)"/>
  <circle cx="19" cy="8" r="0.8" fill="url(#pollenGradient)"/>
  <circle cx="11" cy="9" r="1" fill="url(#pollenGradient)"/>
  <circle cx="21" cy="12" r="0.7" fill="url(#pollenGradient)"/>
  
  <!-- Small floating pollen -->
  <circle cx="6" cy="12" r="0.5" fill="#ffcc02" opacity="0.8"/>
  <circle cx="26" cy="10" r="0.4" fill="#ffcc02" opacity="0.8"/>
  <circle cx="4" cy="18" r="0.3" fill="#ffcc02" opacity="0.6"/>
  <circle cx="28" cy="20" r="0.4" fill="#ffcc02" opacity="0.6"/>
</svg>